<?xml version="1.0" encoding="UTF-8"?>
<svg version="1.1" xmlns="http://www.w3.org/2000/svg"  width="289" height="162">
<path d="M0 0 C11.88 0 23.76 0 36 0 C41.62447497 11.24894994 41.62447497 11.24894994 43.26074219 15.20825195 C43.63173035 16.10071121 44.00271851 16.99317047 44.38494873 17.91267395 C44.7683844 18.84512436 45.15182007 19.77757477 45.546875 20.73828125 C45.9623761 21.73973679 46.3778772 22.74119232 46.80596924 23.772995 C48.12406071 26.9514286 49.43730573 30.13183404 50.75 33.3125 C52.47216133 37.47600602 54.1964519 41.63862599 55.921875 45.80078125 C56.34198853 46.81488068 56.76210205 47.8289801 57.19494629 48.87380981 C61.37868222 58.95221499 65.6726198 68.98255869 70 79 C81.13674447 52.7212847 92.17970425 26.4108294 103 0 C115.21 0 127.42 0 140 0 C140 37.62 140 75.24 140 114 C130.1 114 120.2 114 110 114 C109.67 96.18 109.34 78.36 109 60 C103.29948808 73.65508969 103.29948808 73.65508969 97.6027832 87.31176758 C96.87725151 89.04774549 96.15159232 90.78367013 95.42578125 92.51953125 C95.06270874 93.39170288 94.69963623 94.26387451 94.32556152 95.16247559 C91.67002217 101.50709479 88.84948444 107.73113424 86 114 C75.44 114 64.88 114 54 114 C51.2962925 108.592585 48.76715147 103.26605562 46.46875 97.6953125 C46.15095581 96.9312912 45.83316162 96.1672699 45.5057373 95.38009644 C44.50114313 92.9628341 43.50058381 90.54392466 42.5 88.125 C41.82967527 86.51161561 41.15910422 84.89833354 40.48828125 83.28515625 C39.83571856 81.71363256 39.18336791 80.14202081 38.53125 78.5703125 C38.08888 77.50419235 38.08888 77.50419235 37.63757324 76.41653442 C35.38108257 70.96060468 33.1931815 65.48295376 31 60 C30.67 77.82 30.34 95.64 30 114 C20.1 114 10.2 114 0 114 C0 76.38 0 38.76 0 0 Z " fill="#3CC59F" transform="translate(147,22)"/>
<path d="M0 0 C6.39742721 6.09047994 10.41446095 14.56439289 12 23.1875 C12 25.1675 12 27.1475 12 29.1875 C2.43 29.1875 -7.14 29.1875 -17 29.1875 C-21 20.1875 -21 20.1875 -21 18.1875 C-28.35068399 14.38478191 -35.16128534 12.64295455 -43.4375 12.75 C-44.26789795 12.75829834 -45.0982959 12.76659668 -45.95385742 12.77514648 C-53.94054959 12.99506422 -60.52608383 14.34793784 -66.375 20.125 C-73.83268736 30.167454 -74.10273786 43.21410344 -73 55.1875 C-71.69751546 63.30225977 -69.13490414 69.18889604 -63.125 74.9375 C-55.45576193 80.45935141 -46.48450637 80.69278589 -37.375 79.5 C-30.68035097 78.31719982 -25.47840211 76.66590211 -20.625 71.8125 C-18.60788706 68.77938245 -18.60788706 68.77938245 -17 63.1875 C-7.43 63.1875 2.14 63.1875 12 63.1875 C12 75.17396766 9.57629033 83.95193244 1.44140625 92.90234375 C-12.18610609 105.74553884 -32.48721904 105.84164084 -50.0390625 105.4765625 C-57.27128886 105.20532552 -64.0308564 104.22531288 -71 102.1875 C-71.91523437 101.92066406 -72.83046875 101.65382813 -73.7734375 101.37890625 C-84.03590088 97.82651508 -91.94971805 90.73221526 -97 81.1875 C-102.436509 69.93644661 -103.39210092 58.94667824 -103.375 46.5625 C-103.37445618 45.89963989 -103.37391235 45.23677979 -103.37335205 44.55383301 C-103.31783734 29.84376833 -101.83183123 17.41618939 -93 5.1875 C-92.4225 4.300625 -91.845 3.41375 -91.25 2.5 C-69.42443375 -19.93183198 -23.73950752 -18.28513489 0 0 Z " fill="#3BC49E" transform="translate(105,32.8125)"/>
</svg>
