<?xml version="1.0" encoding="UTF-8"?>
<svg version="1.1" xmlns="http://www.w3.org/2000/svg" width="1280" height="144">
<path d="M0 0 C14.19 0 28.38 0 43 0 C47.4996879 8.99937581 47.4996879 8.99937581 49.00439453 12.63208008 C49.34703339 13.45517166 49.68967224 14.27826324 50.04269409 15.126297 C50.40243317 15.9985643 50.76217224 16.8708316 51.1328125 17.76953125 C51.52276398 18.70822556 51.91271545 19.64691986 52.31448364 20.61405945 C53.58721889 23.67914985 54.85607095 26.74583217 56.125 29.8125 C57.45852129 33.02620349 58.79308619 36.23947236 60.12768555 39.45272827 C61.04158902 41.6532955 61.95516022 43.85400075 62.8684082 46.05484009 C67.63794763 57.54675225 72.44174061 69.02424676 77.25 80.5 C78.03794851 82.38125567 78.8258724 84.26252164 79.61376953 86.14379883 C81.40873263 90.42938664 83.20419488 94.71476496 85 99 C87.50991099 94.06933524 89.85256871 89.14701174 91.96875 84.03125 C92.24189026 83.3734404 92.51503052 82.7156308 92.79644775 82.03788757 C93.70025518 79.85966877 94.60007508 77.67982536 95.5 75.5 C96.14323259 73.94819002 96.78679623 72.39651722 97.43066406 70.8449707 C98.84093534 67.4460893 100.24989778 64.04666907 101.65820312 60.64697266 C105.56143125 51.22944546 109.48537282 41.82052804 113.40698242 32.41064453 C114.73348774 29.22712823 116.05921133 26.04328739 117.38476562 22.859375 C118.20961944 20.8788996 119.03448852 18.89843055 119.859375 16.91796875 C120.23378723 16.01833908 120.60819946 15.11870941 120.99395752 14.19181824 C121.34625427 13.34629898 121.69855103 12.50077972 122.06152344 11.62963867 C122.36491638 10.90105148 122.66830933 10.17246429 122.980896 9.42179871 C124.30521687 6.27468264 125.65499976 3.1383339 127 0 C141.19 0 155.38 0 170 0 C170 46.2 170 92.4 170 140 C158.78 140 147.56 140 136 140 C135.67 115.91 135.34 91.82 135 67 C132.463125 73.125625 129.92625 79.25125 127.3125 85.5625 C116.49788814 111.64664508 116.49788814 111.64664508 111.34213257 123.98361206 C110.78123455 125.32661675 110.22119447 126.66998008 109.66201782 128.01370239 C108.89164768 129.86429657 108.11780048 131.71344218 107.34375 133.5625 C106.91255859 134.59503906 106.48136719 135.62757813 106.03710938 136.69140625 C105 139 105 139 104 140 C101.1883662 140.08861992 98.40141745 140.11522355 95.58984375 140.09765625 C94.74780899 140.0962413 93.90577423 140.09482635 93.03822327 140.09336853 C90.33794665 140.08775263 87.63775172 140.07519748 84.9375 140.0625 C83.11132932 140.05748705 81.28515734 140.05292379 79.45898438 140.04882812 C74.97262458 140.03777804 70.48632616 140.02050279 66 140 C63.49289264 134.08680577 60.98883246 128.17232706 58.48657227 122.25708008 C57.64086585 120.25875895 56.79454352 118.26069833 55.94750977 116.26293945 C49.15119103 100.23174225 42.57063741 84.1279282 36 68 C35.67 91.76 35.34 115.52 35 140 C23.45 140 11.9 140 0 140 C0 93.8 0 47.6 0 0 Z " fill="#3ECDA5" transform="translate(1110,2)"/>
<path d="M0 0 C2.17252464 -0.00960126 4.34405838 -0.0406218 6.51635742 -0.07226562 C26.56817858 -0.22479599 45.05028757 4.48025776 60.0222168 18.49023438 C68.32779107 27.14308005 72.2722168 38.3423332 72.2722168 50.24023438 C60.7222168 50.24023438 49.1722168 50.24023438 37.2722168 50.24023438 C36.2822168 46.28023437 36.2822168 46.28023437 35.2722168 42.24023438 C32.9044116 37.03106295 29.43917064 34.59750031 24.22143555 32.36132812 C11.80337374 28.04109486 -4.13465094 27.44717113 -16.1652832 33.11523438 C-21.63860366 36.02944079 -25.18449173 39.32704946 -27.9152832 44.92773438 C-28.40383789 45.90097656 -28.89239258 46.87421875 -29.39575195 47.87695312 C-32.49363265 55.69887476 -33.08732158 63.19027966 -33.0402832 71.55273438 C-33.03609375 72.56730713 -33.0319043 73.58187988 -33.02758789 74.62719727 C-32.91879574 81.83930677 -32.31718769 88.44725117 -29.7277832 95.24023438 C-29.3275293 96.35011719 -29.3275293 96.35011719 -28.91918945 97.48242188 C-26.10707006 104.10652534 -21.38967406 108.5160941 -14.9152832 111.56445312 C-1.69263367 116.27502202 12.38071909 115.70878515 25.2722168 110.24023438 C29.57434101 108.12291442 32.6892806 105.29913411 35.2722168 101.24023438 C35.9322168 98.60023437 36.5922168 95.96023437 37.2722168 93.24023438 C48.8222168 93.24023438 60.3722168 93.24023438 72.2722168 93.24023438 C72.2722168 107.23211661 69.26161209 119.02380737 59.2722168 129.24023438 C39.90905387 144.81061281 12.39573861 146.11857644 -11.36352539 144.00585938 C-27.97557384 141.94039405 -44.94571763 136.13337341 -55.7590332 122.72070312 C-66.71673487 107.4494286 -69.12826898 89.84098935 -69.0402832 71.42773438 C-69.03536865 70.20376953 -69.0304541 68.97980469 -69.02539062 67.71875 C-68.79107134 49.57883256 -65.27053739 33.71287802 -53.7277832 19.24023438 C-53.25211914 18.61503906 -52.77645508 17.98984375 -52.28637695 17.34570312 C-39.8420622 2.95188737 -17.72504136 0.04715674 0 0 Z " fill="#3ECDA5" transform="translate(998.727783203125,-0.240234375)"/>
<path d="M0 0 C4.29 0 8.58 0 13 0 C16.65381592 6.97546676 19.74914713 14.07065431 22.67602539 21.37280273 C23.90502606 24.9486404 23.90502606 24.9486404 26 28 C26.32798584 27.18732666 26.65597168 26.37465332 26.99389648 25.53735352 C28.20882606 22.53050512 29.42602057 19.52458685 30.64477539 16.51928711 C31.17238314 15.21692306 31.69907915 13.91418927 32.22485352 12.61108398 C32.97954912 10.74106066 33.73776804 8.87246046 34.49609375 7.00390625 C34.95169678 5.87799072 35.4072998 4.7520752 35.87670898 3.59204102 C37 1 37 1 38 0 C42.29 0 46.58 0 51 0 C51 14.19 51 28.38 51 43 C47.37 43 43.74 43 40 43 C39.67 37.39 39.34 31.78 39 26 C36.69 31.61 34.38 37.22 32 43 C28.04 43 24.08 43 20 43 C17.14376931 37.36473404 14.49335889 31.8178374 12 26 C11.67 31.61 11.34 37.22 11 43 C7.37 43 3.74 43 0 43 C0 28.81 0 14.62 0 0 Z " fill="#3DC9A8" transform="translate(546,37)"/>
<path d="M0 0 C29.88888889 0 29.88888889 0 36 5 C41.31415958 12.40186513 40.61431895 21.27840141 40 30 C38.77424335 34.81897471 36.86801897 37.27972894 33.0625 40.4375 C28.37837901 42.82735765 24.25435749 43.12438132 19.04296875 43.09765625 C18.04031982 43.09515869 17.0376709 43.09266113 16.00463867 43.09008789 C14.74498291 43.08098389 13.48532715 43.07187988 12.1875 43.0625 C8.165625 43.041875 4.14375 43.02125 0 43 C0 28.81 0 14.62 0 0 Z M11 10 C11 17.92 11 25.84 11 34 C19.7207255 34.18582214 19.7207255 34.18582214 27 31 C29.82575712 26.65775322 29.53484598 21.99999958 29 17 C27.38727433 13.31376989 26.369675 12.24645 23 10 C19.04 10 15.08 10 11 10 Z " fill="#3DC8A8" transform="translate(805,37)"/>
<path d="M0 0 C0.69480469 -0.020625 1.38960937 -0.04125 2.10546875 -0.0625 C8.15305957 -0.10805624 12.12342247 1.35376866 16.5 5.5 C18.53551221 8.94471298 18.43360339 11.31530676 18.125 15.25 C14.495 15.25 10.865 15.25 7.125 15.25 C6.795 13.93 6.465 12.61 6.125 11.25 C3.48041621 9.92770811 1.44738699 10.15322806 -1.5 10.1875 C-3.00433594 10.20103516 -3.00433594 10.20103516 -4.5390625 10.21484375 C-5.30992187 10.22644531 -6.08078125 10.23804688 -6.875 10.25 C-6.917721 11.91611905 -6.91563832 13.58382885 -6.875 15.25 C-4.70805464 17.41694536 0.81009425 16.6007667 3.87109375 16.6796875 C8.93555982 16.90519248 12.62678748 17.85926236 17.125 20.25 C19.76157218 24.20485827 20.17202524 27.53963866 20.125 32.25 C18.96266238 36.42074086 17.78018176 38.61161777 14.6875 41.625 C6.39290491 45.40849952 -3.26524559 44.91015668 -11.875 42.25 C-15.88110833 39.87903793 -17.66799683 37.74883001 -18.875 33.25 C-18.90191768 31.58355072 -18.90560141 29.91638571 -18.875 28.25 C-17.1062602 28.11486708 -15.33456945 28.01794414 -13.5625 27.9375 C-12.57636719 27.87949219 -11.59023438 27.82148437 -10.57421875 27.76171875 C-9.68347656 27.92285156 -8.79273438 28.08398438 -7.875 28.25 C-7.400625 29.075 -6.92625 29.9 -6.4375 30.75 C-5.921875 31.575 -5.40625 32.4 -4.875 33.25 C-1.68124623 33.85557942 -1.68124623 33.85557942 1.8125 33.5625 C3.58173828 33.49482422 3.58173828 33.49482422 5.38671875 33.42578125 C6.29035156 33.36777344 7.19398438 33.30976562 8.125 33.25 C7.63 30.775 7.63 30.775 7.125 28.25 C2.46663348 26.69721116 -2.32640069 26.9096122 -7.2109375 26.7265625 C-11.96467678 26.10827232 -14.64123872 24.73902223 -17.6875 21.0625 C-19.81530253 16.02296768 -19.50229013 11.91231884 -17.625 6.9375 C-15.58182353 3.79976471 -13.81533378 1.91221415 -10.23828125 0.69140625 C-6.83312529 0.05540191 -3.45173773 0.02533385 0 0 Z " fill="#3DC9A8" transform="translate(688.875,36.75)"/>
<path d="M0 0 C5.445 -0.061875 5.445 -0.061875 11 -0.125 C12.69189453 -0.15231201 12.69189453 -0.15231201 14.41796875 -0.18017578 C21.59947205 -0.21942589 28.10548256 -0.23119053 34 4.3125 C37.44077612 9.00869443 36.82505027 15.50654025 36 21 C34.41942448 24.19331391 32.63843984 26.61284015 30 29 C30.5053125 29.84304687 31.010625 30.68609375 31.53125 31.5546875 C32.50578125 33.19824219 32.50578125 33.19824219 33.5 34.875 C34.47453125 36.51082031 34.47453125 36.51082031 35.46875 38.1796875 C37 41 37 41 37 43 C32.79251915 43.74615424 29.16995907 44.04898099 25 43 C21.65829349 39.30915997 18 34.1683653 18 29 C15.69 29 13.38 29 11 29 C11 33.62 11 38.24 11 43 C7.37 43 3.74 43 0 43 C0 28.81 0 14.62 0 0 Z M11 10 C11 13.3 11 16.6 11 20 C12.95803507 20.05389087 14.91648909 20.09274217 16.875 20.125 C17.96554687 20.14820313 19.05609375 20.17140625 20.1796875 20.1953125 C23.1371051 20.30060534 23.1371051 20.30060534 25 18 C25.25003964 14.45821402 25.25003964 14.45821402 25 11 C23.88873341 9.66098208 23.88873341 9.66098208 21.05859375 9.90234375 C19.86363281 9.91394531 18.66867187 9.92554688 17.4375 9.9375 C16.23996094 9.94652344 15.04242188 9.95554687 13.80859375 9.96484375 C12.41833984 9.98224609 12.41833984 9.98224609 11 10 Z " fill="#3DC9A7" transform="translate(407,37)"/>
<path d="M0 0 C5.63944214 5.394249 7.05796058 10.77063484 7.3125 18.375 C7.14222433 25.27116465 6.07904617 31.34823172 1.125 36.4375 C-5.31771065 41.31710575 -14.13739199 41.52315478 -21.875 40.5 C-27.0902172 39.29122517 -30.75441059 37.30895916 -34 33 C-38.12114586 25.40763809 -38.15970751 16.31186857 -35.875 8.125 C-34.15846308 3.62009795 -32.03505455 1.61091765 -28 -1 C-19.17387855 -4.53542806 -8.4124072 -4.58858575 0 0 Z M-23 9 C-25.90241972 13.4036713 -26.54996426 16.77533951 -26 22 C-25.07596607 25.30777363 -23.99375535 28.15346767 -21.3125 30.4375 C-17.065119 31.47064673 -12.934881 31.47064673 -8.6875 30.4375 C-5.94545867 28.10168701 -4.76719342 25.43350496 -4 22 C-3.80550411 17.19744764 -4.38102302 13.26374467 -6.5 8.9375 C-11.53244891 5.0373521 -18.14806446 4.57617642 -23 9 Z " fill="#3DC9A8" transform="translate(325,40)"/>
<path d="M0 0 C3.63 0 7.26 0 11 0 C11 5.61 11 11.22 11 17 C16.94 17 22.88 17 29 17 C28.96042843 11.77936725 28.96042843 11.77936725 28.90991211 6.55883789 C28.90276055 4.70566241 28.9497148 2.85250692 29 1 C29.33 0.67 29.66 0.34 30 0 C33.63 0 37.26 0 41 0 C41 14.19 41 28.38 41 43 C37.04 43 33.08 43 29 43 C29 37.39 29 31.78 29 26 C23.06 26 17.12 26 11 26 C11 31.61 11 37.22 11 43 C7.37 43 3.74 43 0 43 C0 28.81 0 14.62 0 0 Z " fill="#3DC8A7" transform="translate(60,37)"/>
<path d="M0 0 C3.63 0 7.26 0 11 0 C11 5.61 11 11.22 11 17 C17.27 17 23.54 17 30 17 C30 11.39 30 5.78 30 0 C33.63 0 37.26 0 41 0 C41 14.19 41 28.38 41 43 C37.37 43 33.74 43 30 43 C30 37.39 30 31.78 30 26 C23.73 26 17.46 26 11 26 C11 31.61 11 37.22 11 43 C7.37 43 3.74 43 0 43 C0 28.81 0 14.62 0 0 Z " fill="#3DC8A7" transform="translate(349,37)"/>
<path d="M0 0 C3.63 0 7.26 0 11 0 C11.33 4.29 11.66 8.58 12 13 C12.78761719 12.0615625 13.57523438 11.123125 14.38671875 10.15625 C22.97147451 0.46601261 22.97147451 0.46601261 28.7578125 -0.86328125 C31.93306302 -0.81792053 34.88355005 -0.59676701 38 0 C36.6415798 3.04332765 35.11536976 5.12309151 32.7421875 7.453125 C32.11699219 8.071875 31.49179688 8.690625 30.84765625 9.328125 C30.19667969 9.96234375 29.54570312 10.5965625 28.875 11.25 C28.21628906 11.8996875 27.55757812 12.549375 26.87890625 13.21875 C25.25703357 14.81711727 23.6306719 16.41061897 22 18 C23.62922557 21.43607008 25.51869265 23.83706844 28.125 26.625 C41 40.66855754 41 40.66855754 41 43 C36.16647305 43.68950889 31.81400362 43.91291468 27 43 C22.11983225 39.30706896 18.82682517 34.62090832 15.35546875 29.640625 C14.90816406 29.09921875 14.46085938 28.5578125 14 28 C13.34 28 12.68 28 12 28 C11.67 32.95 11.34 37.9 11 43 C7.37 43 3.74 43 0 43 C0 28.81 0 14.62 0 0 Z " fill="#3DC9A7" transform="translate(178,37)"/>
<path d="M0 0 C3.85105684 2.05969895 5.90072431 4.39213398 7.8125 8.375 C8.5625 11.75 8.5625 11.75 8.8125 14.375 C5.1825 14.375 1.5525 14.375 -2.1875 14.375 C-2.8475 13.055 -3.5075 11.735 -4.1875 10.375 C-8.10031832 7.88502471 -11.67870297 8.34766378 -16.1015625 8.79296875 C-18.61059949 9.49305585 -19.58664352 10.34239738 -21.1875 12.375 C-22.9553002 17.67840061 -23.11430499 23.31075253 -20.8125 28.4375 C-19.32497501 30.4720615 -19.32497501 30.4720615 -17.1875 31.375 C-15.11185324 31.57258231 -15.11185324 31.57258231 -12.8125 31.5625 C-12.04164062 31.57667969 -11.27078125 31.59085938 -10.4765625 31.60546875 C-7.90488974 31.34654607 -6.33915514 30.80153788 -4.1875 29.375 C-3.8575 28.385 -3.5275 27.395 -3.1875 26.375 C0.7725 26.375 4.7325 26.375 8.8125 26.375 C7.4684655 34.6835769 7.4684655 34.6835769 4.5 37.8125 C-3.88424792 42.68706274 -12.29187553 43.09547129 -21.703125 41.1015625 C-26.30634998 39.75533633 -29.203132 37.73274897 -32 33.875 C-35.36185601 26.79740839 -35.21126238 17.6239512 -33.7265625 10.01171875 C-31.77488514 4.83403352 -27.79351211 1.66892587 -22.9453125 -0.73828125 C-15.97851704 -2.97831322 -6.80827783 -2.71877983 0 0 Z " fill="#3DC9A8" transform="translate(34.1875,38.625)"/>
<path d="M0 0 C3.96 0 7.92 0 12 0 C14.28075215 5.96233197 16.55935652 11.92547841 18.8359375 17.8894043 C19.61138249 19.9199057 20.38742331 21.95017967 21.1640625 23.98022461 C22.27759468 26.89117386 23.38901068 29.80292321 24.5 32.71484375 C24.84998047 33.6283812 25.19996094 34.54191864 25.56054688 35.48313904 C25.88087891 36.32393509 26.20121094 37.16473114 26.53125 38.03100586 C26.81548828 38.77491074 27.09972656 39.51881561 27.39257812 40.28526306 C28 42 28 42 28 43 C24.04 43 20.08 43 16 43 C14 38 14 38 14 35 C8.72 35 3.44 35 -2 35 C-2.495 37.475 -2.495 37.475 -3 40 C-3.33 40.99 -3.66 41.98 -4 43 C-7.96 43 -11.92 43 -16 43 C-11.06185543 28.50313184 -5.66319038 14.2286053 0 0 Z M5 16 C4.01 19.3 3.02 22.6 2 26 C4.64 26 7.28 26 10 26 C9.01 22.7 8.02 19.4 7 16 C6.34 16 5.68 16 5 16 Z " fill="#3DC9A8" transform="translate(477,37)"/>
<path d="M0 0 C2.83203125 0.03255208 5.6640625 0.06510417 8.49609375 0.09765625 C12.03468099 8.4259151 15.36786771 16.82226155 18.57299805 25.28320312 C19.32150497 27.25669764 20.0756926 29.22796496 20.83007812 31.19921875 C21.30893524 32.45950572 21.78746381 33.71991758 22.265625 34.98046875 C22.90914917 36.67260498 22.90914917 36.67260498 23.56567383 38.39892578 C24.49609375 41.09765625 24.49609375 41.09765625 24.49609375 43.09765625 C20.86609375 43.09765625 17.23609375 43.09765625 13.49609375 43.09765625 C10.49609375 37.34765625 10.49609375 37.34765625 10.49609375 35.09765625 C5.54609375 35.42765625 0.59609375 35.75765625 -4.50390625 36.09765625 C-5.49390625 38.40765625 -6.48390625 40.71765625 -7.50390625 43.09765625 C-11.13390625 43.09765625 -14.76390625 43.09765625 -18.50390625 43.09765625 C-17.86643035 37.92276171 -16.28104424 33.48158239 -14.37890625 28.671875 C-14.07194824 27.88367874 -13.76499023 27.09548248 -13.44873047 26.28340149 C-12.80254435 24.62755983 -12.15356737 22.97280488 -11.50195312 21.3190918 C-10.5012443 18.77839785 -9.50971185 16.23426628 -8.51953125 13.68945312 C-7.88985498 12.07921892 -7.25966483 10.46918555 -6.62890625 8.859375 C-6.33097168 8.09590256 -6.03303711 7.33243011 -5.72607422 6.54582214 C-3.18987582 0.12441013 -3.18987582 0.12441013 0 0 Z M2.49609375 16.09765625 C1.17609375 19.39765625 -0.14390625 22.69765625 -1.50390625 26.09765625 C1.13609375 26.09765625 3.77609375 26.09765625 6.49609375 26.09765625 C5.88618484 22.53985429 4.91772565 19.41479735 3.49609375 16.09765625 C3.16609375 16.09765625 2.83609375 16.09765625 2.49609375 16.09765625 Z " fill="#3DC9A8" transform="translate(136.50390625,36.90234375)"/>
<path d="M0 0 C3.96 0 7.92 0 12 0 C13.63953065 4.19368187 15.27507349 8.38889229 16.90722656 12.58544922 C17.46086911 14.007406 18.01552548 15.42896853 18.57128906 16.85009766 C21.95305429 25.49984734 25.14491364 34.15754807 28 43 C24.04 43 20.08 43 16 43 C15.34 40.36 14.68 37.72 14 35 C8.72 35 3.44 35 -2 35 C-2.33 36.98 -2.66 38.96 -3 41 C-3.33 41.66 -3.66 42.32 -4 43 C-7.63 43 -11.26 43 -15 43 C-13.77340858 36.97314047 -12.20806634 31.40117446 -9.9609375 25.68359375 C-9.67521881 24.94166275 -9.38950012 24.19973175 -9.09512329 23.43531799 C-8.1943715 21.10035573 -7.28487033 18.76892198 -6.375 16.4375 C-5.7572267 14.84072131 -5.14003403 13.24371785 -4.5234375 11.64648438 C-3.02231365 7.76169651 -1.51334118 3.88004395 0 0 Z M6 16 C5.3310968 17.47815662 4.66493641 18.95755472 4 20.4375 C3.443125 21.67306641 3.443125 21.67306641 2.875 22.93359375 C1.93501268 24.77946992 1.93501268 24.77946992 2 26 C4.64 26 7.28 26 10 26 C9.01 22.7 8.02 19.4 7 16 C6.67 16 6.34 16 6 16 Z " fill="#3DC9A8" transform="translate(630,37)"/>
<path d="M0 0 C11.55 0 23.1 0 35 0 C35 11.12377977 35 11.12377977 31.18847656 14.99536133 C30.38361816 15.74015747 30.38361816 15.74015747 29.5625 16.5 C28.46410715 17.59691916 27.36645921 18.69458469 26.26953125 19.79296875 C25.71990723 20.32712402 25.1702832 20.8612793 24.60400391 21.41162109 C22.20737444 23.7849044 19.98794636 26.28901025 17.75 28.8125 C15.89375 30.8853125 15.89375 30.8853125 14 33 C20.93 33.33 27.86 33.66 35 34 C35 36.97 35 39.94 35 43 C23.45 43 11.9 43 0 43 C0 33 0 33 3.0625 29.375 C4.37387958 28.24869415 5.68641401 27.12373177 7 26 C8.21192223 24.68882552 9.3996711 23.35490331 10.5625 22 C11.33787109 21.1028125 11.33787109 21.1028125 12.12890625 20.1875 C13.05509766 19.1046875 13.05509766 19.1046875 14 18 C15.98 15.69 17.96 13.38 20 11 C13.4 10.67 6.8 10.34 0 10 C0 6.7 0 3.4 0 0 Z " fill="#3DC8A8" transform="translate(236,37)"/>
<path d="M0 0 C1.32 0 2.64 0 4 0 C4.75367676 2.72673843 5.15634342 5.25020055 5.28125 8.07421875 C5.33732422 9.19860352 5.33732422 9.19860352 5.39453125 10.34570312 C5.46537047 11.91859616 5.5356752 13.49151335 5.60546875 15.06445312 C5.44119539 18.84361312 5.44119539 18.84361312 7 22 C8.99958364 22.04080783 11.00045254 22.04254356 13 22 C12.484375 21.443125 11.96875 20.88625 11.4375 20.3125 C10 18 10 18 9.9375 15.4375 C11 13 11 13 13.5625 11.125 C17.97073262 9.68230569 20.48162233 10.08100793 25 11 C26 12 26 12 26.125 15.375 C26 19 26 19 25 22 C27.64 22 30.28 22 33 22 C32.505 16.555 32.505 16.555 32 11 C34.475 10.505 34.475 10.505 37 10 C38.6263447 15.4530381 39.36198157 19.3250768 38 25 C35.06784678 27.93215322 32.91459728 27.96413344 28.8125 28.125 C26.01173854 28.03317176 23.44571707 27.81273448 20.6875 27.4375 C16.41613815 26.90357977 12.51203759 27.24145039 8.26171875 27.84375 C5.90003739 28.00690588 4.27581889 27.57343468 2 27 C-0.20192736 27.12836147 -0.20192736 27.12836147 -2.4375 27.5 C-5.95490787 27.95829419 -8.52423235 27.71297798 -12 27 C-15.41439277 27.33584191 -18.74769849 27.76432702 -22.1171875 28.3984375 C-25.63292528 28.99544958 -27.61370709 29.18474878 -30.875 27.625 C-31.57625 27.08875 -32.2775 26.5525 -33 26 C-33.66 25.67 -34.32 25.34 -35 25 C-34.85786703 26.89611434 -34.71113093 28.79188394 -34.5625 30.6875 C-34.44068359 32.27111328 -34.44068359 32.27111328 -34.31640625 33.88671875 C-34.03548319 36.65086297 -33.59843148 39.28945741 -33 42 C-35.475 42.495 -35.475 42.495 -38 43 C-40.71830814 36.29483991 -41.84394716 29.21754854 -40 22.1875 C-37.5477411 18.27921237 -35.04351936 15.29764135 -31 13 C-27.0625 12.625 -27.0625 12.625 -24 13 C-21.525 17.455 -21.525 17.455 -19 22 C-17.68 22 -16.36 22 -15 22 C-14.01 18.535 -14.01 18.535 -13 15 C-10.525 15.495 -10.525 15.495 -8 16 C-8.020625 16.804375 -8.04125 17.60875 -8.0625 18.4375 C-8.29633621 20.93354885 -8.29633621 20.93354885 -7 22 C-5.02 22 -3.04 22 -1 22 C-0.67 14.74 -0.34 7.48 0 0 Z M16 15 C16.66 16.32 17.32 17.64 18 19 C18.99 19 19.98 19 21 19 C21.33 18.01 21.66 17.02 22 16 C20.93354885 14.70366379 20.93354885 14.70366379 18.4375 14.9375 C17.633125 14.958125 16.82875 14.97875 16 15 Z M-30 18 C-30.33 19.32 -30.66 20.64 -31 22 C-28.525 22.99 -28.525 22.99 -26 24 C-25.67 23.34 -25.34 22.68 -25 22 C-25.89163577 19.88316159 -25.89163577 19.88316159 -27 18 C-27.99 18 -28.98 18 -30 18 Z " fill="#92E7C7" transform="translate(603,95)"/>
<path d="M0 0 C3.63 0 7.26 0 11 0 C11.07474224 4.26835703 11.12887823 8.53635674 11.16479492 12.80517578 C11.17978417 14.25413661 11.20018271 15.70305283 11.22631836 17.15185547 C11.4931613 32.33574192 11.4931613 32.33574192 8 39 C3.50371185 43.17512471 -1.03810261 44.08839716 -7 44 C-12.62660552 43.40531812 -17.00723161 42.23475435 -21 38 C-23.25441673 34.02793243 -23.17659715 30.50322732 -23 26 C-19.37 26 -15.74 26 -12 26 C-11.01 28.31 -10.02 30.62 -9 33 C-7.02 33 -5.04 33 -3 33 C-0.8015636 29.43621889 -0.69489531 26.40602194 -0.5859375 22.265625 C-0.54726563 20.97011719 -0.50859375 19.67460938 -0.46875 18.33984375 C-0.43729733 16.97656716 -0.40604993 15.61328582 -0.375 14.25 C-0.33679531 12.87106972 -0.29774213 11.49216266 -0.2578125 10.11328125 C-0.16351996 6.74232282 -0.0779178 3.37137022 0 0 Z " fill="#3DC8A8" transform="translate(749,37)"/>
<path d="M0 0 C3.3125 1 3.3125 1 5.3125 4 C5.57010279 6.69452521 5.40150053 9.28548375 5.3125 12 C7.6225 12 9.9325 12 12.3125 12 C11.8175 6.555 11.8175 6.555 11.3125 1 C12.9625 0.67 14.6125 0.34 16.3125 0 C18.26885423 5.5238237 18.48570538 9.23174022 17.3125 15 C14.73089807 17.58160193 12.80121176 17.93087013 9.20947266 18.09765625 C8.4726123 18.08605469 7.73575195 18.07445313 6.9765625 18.0625 C6.15929687 18.05476563 5.34203125 18.04703125 4.5 18.0390625 C2.79947735 18.0131399 1.09895649 17.98709933 -0.6015625 17.9609375 C-7.19893458 17.89813656 -7.19893458 17.89813656 -13.6875 19 C-15.06618281 20.62935241 -16.40024093 22.29749607 -17.6875 24 C-21.1149141 25.84553067 -23.82255158 26.2208542 -27.6875 26 C-28.0175 24.35 -28.3475 22.7 -28.6875 21 C-26.0475 20.34 -23.4075 19.68 -20.6875 19 C-22.1415625 18.4740625 -22.1415625 18.4740625 -23.625 17.9375 C-26.6875 16 -26.6875 16 -27.75 12.625 C-27.68036175 8.58598168 -27.4554365 6.94093253 -24.6875 4 C-21.25 2.9375 -21.25 2.9375 -17.6875 3 C-14.75267421 5.0080387 -13.8716885 6.32464216 -12.9375 9.75 C-12.81375 10.86375 -12.81375 10.86375 -12.6875 12 C-10.2125 12.495 -10.2125 12.495 -7.6875 13 C-8.0175 12.34 -8.3475 11.68 -8.6875 11 C-9.22508841 6.96808695 -8.9950996 5.4380964 -6.625 2.0625 C-3.6875 0 -3.6875 0 0 0 Z M-2.6875 5 C-3.0175 6.65 -3.3475 8.3 -3.6875 10 C-2.3675 10 -1.0475 10 0.3125 10 C0.3125 8.68 0.3125 7.36 0.3125 6 C-0.6775 5.67 -1.6675 5.34 -2.6875 5 Z M-21.6875 8 C-22.0175 9.32 -22.3475 10.64 -22.6875 12 C-20.2125 12.495 -20.2125 12.495 -17.6875 13 C-18.3475 11.35 -19.0075 9.7 -19.6875 8 C-20.3475 8 -21.0075 8 -21.6875 8 Z " fill="#92E7C7" transform="translate(354.6875,105)"/>
<path d="M0 0 C3.63 0 7.26 0 11 0 C11 14.19 11 28.38 11 43 C7.37 43 3.74 43 0 43 C0 28.81 0 14.62 0 0 Z " fill="#3DC8A7" transform="translate(777,37)"/>
<path d="M0 0 C4.5565527 3.71274665 6.57400393 8.79007402 9 14 C10.32 14 11.64 14 13 14 C13.33 13.34 13.66 12.68 14 12 C16.475 12.495 16.475 12.495 19 13 C19 14.98 19 16.96 19 19 C19.639375 18.360625 20.27875 17.72125 20.9375 17.0625 C25.06693371 14.28145281 28.06567216 14.29458674 33 14 C32.505 8.555 32.505 8.555 32 3 C33.65 2.67 35.3 2.34 37 2 C38.6263447 7.4530381 39.36198157 11.3250768 38 17 C34.90097677 20.09902323 32.60852615 19.9898579 28.25 20.0625 C27.1775 20.041875 26.105 20.02125 25 20 C24.67 22.64 24.34 25.28 24 28 C22.35 28.66 20.7 29.32 19 30 C15.13574661 24.33242836 15.13574661 24.33242836 14.12109375 21.84765625 C13.17091394 19.83981034 13.17091394 19.83981034 11.15234375 19.35546875 C6.27784086 18.98579745 1.85667069 19.1972922 -2.98046875 19.875 C-5.7023666 20.04347337 -7.63297969 19.29804339 -10 18 C-9.34 16.68 -8.68 15.36 -8 14 C-4.7 14 -1.4 14 2 14 C1.62746094 13.31292969 1.25492187 12.62585938 0.87109375 11.91796875 C0.39800781 11.01691406 -0.07507813 10.11585937 -0.5625 9.1875 C-1.03816406 8.29417969 -1.51382812 7.40085937 -2.00390625 6.48046875 C-3 4 -3 4 -2 1 C-1.34 0.67 -0.68 0.34 0 0 Z " fill="#93E8C8" transform="translate(500,103)"/>
<path d="M0 0 C-0.24609375 1.859375 -0.24609375 1.859375 -1 4 C-2.84765625 5.265625 -2.84765625 5.265625 -5.0625 6.25 C-5.79597656 6.58515625 -6.52945313 6.9203125 -7.28515625 7.265625 C-8.13400391 7.62914063 -8.13400391 7.62914063 -9 8 C-8.36771484 8.76183594 -8.36771484 8.76183594 -7.72265625 9.5390625 C-1.88353957 16.87574088 -1.88353957 16.87574088 -2 22 C-3.28537435 24.50309742 -4.09636239 25.69878746 -6.79296875 26.59765625 C-9.27740024 27.05057031 -11.60017328 27.1325368 -14.125 27.125 C-15.42824219 27.12886719 -15.42824219 27.12886719 -16.7578125 27.1328125 C-19 27 -19 27 -21 26 C-21.226875 26.5775 -21.45375 27.155 -21.6875 27.75 C-23.88832892 31.52284957 -26.59655872 33.62574899 -30.8125 34.75 C-31.534375 34.8325 -32.25625 34.915 -33 35 C-33.33 33.68 -33.66 32.36 -34 31 C-33.4225 30.64808594 -32.845 30.29617187 -32.25 29.93359375 C-29.96226813 28.41241093 -27.9443567 26.9443567 -26 25 C-25.38690856 21.04896625 -25.78587213 17.79414961 -27 14 C-25.68 13.34 -24.36 12.68 -23 12 C-21.35 14.97 -19.7 17.94 -18 21 C-14.37 21 -10.74 21 -7 21 C-9.01484559 17.71654793 -10.64704734 15.2647145 -13.75 12.9375 C-16 11 -16 11 -16.4453125 8.58203125 C-16 6 -16 6 -13.8828125 4.234375 C-12.97273438 3.74453125 -12.06265625 3.2546875 -11.125 2.75 C-10.22007812 2.24984375 -9.31515625 1.7496875 -8.3828125 1.234375 C-3.7995992 -1.13987976 -3.7995992 -1.13987976 0 0 Z " fill="#90E7C7" transform="translate(214,96)"/>
<path d="M0 0 C1.32 0 2.64 0 4 0 C5.14850697 4.73879768 5.32901557 9.46291362 5.5625 14.3125 C5.60568359 15.14845703 5.64886719 15.98441406 5.69335938 16.84570312 C5.79885307 18.89696935 5.89987315 20.9484648 6 23 C9.96 22.67 13.92 22.34 18 22 C15.98515441 18.71654793 14.35295266 16.2647145 11.25 13.9375 C9 12 9 12 8.56640625 9.58203125 C9 7 9 7 11.01171875 5.234375 C11.89472656 4.74453125 12.77773438 4.2546875 13.6875 3.75 C14.55761719 3.24984375 15.42773438 2.7496875 16.32421875 2.234375 C18.91716613 1.03821241 21.18732153 0.42570269 24 0 C24.33 1.32 24.66 2.64 25 4 C22.03 5.65 19.06 7.3 16 9 C16.969375 10.19625 17.93875 11.3925 18.9375 12.625 C21.49811572 16.05938032 23.10055348 18.57564703 23 23 C21.72195147 25.48883134 20.91110412 26.69428736 18.23046875 27.59375 C15.62120205 28.06899297 13.15224793 28.16928401 10.5 28.1875 C9.5615625 28.20167969 8.623125 28.21585938 7.65625 28.23046875 C4.88718967 27.99021205 3.28691517 27.56445788 1 26 C-0.01973129 22.94080612 -0.11533602 20.87581975 -0.09765625 17.67578125 C-0.09443359 16.64775391 -0.09121094 15.61972656 -0.08789062 14.56054688 C-0.07951172 13.48869141 -0.07113281 12.41683594 -0.0625 11.3125 C-0.05798828 10.22904297 -0.05347656 9.14558594 -0.04882812 8.02929688 C-0.03703743 5.35280915 -0.02058063 2.67643223 0 0 Z " fill="#91E7C8" transform="translate(261,95)"/>
<path d="M0 0 C2.63212469 3.94818703 3.01647491 7.30465012 3 12 C2.1875 15 2.1875 15 0 17 C-4.31521726 18.12928563 -8.39121057 18.66705903 -12.5625 16.9375 C-16.50795439 15.42001754 -20.02488947 16.94422198 -24 18 C-31.4579019 19.55372956 -38.82758317 19.86896673 -46 17 C-48.8496572 14.5180405 -48.98249045 13.24951113 -49.25 9.4375 C-49 6 -49 6 -48 3 C-46.35 3.33 -44.7 3.66 -43 4 C-43 6.31 -43 8.62 -43 11 C-37.5883115 14.16627929 -31.37879879 13.73737612 -25.38671875 12.4296875 C-20.99431799 11.11254445 -20.99431799 11.11254445 -17.41796875 8.375 C-16.95003906 7.92125 -16.48210937 7.4675 -16 7 C-13.3125 7.3125 -13.3125 7.3125 -11 8 C-11.33 9.32 -11.66 10.64 -12 12 C-9.03 12 -6.06 12 -3 12 C-3.33 8.7 -3.66 5.4 -4 2 C-2.68 1.34 -1.36 0.68 0 0 Z " fill="#91E7C7" transform="translate(485,105)"/>
<path d="M0 0 C2.96865509 2.54456151 4.3619751 5.48994665 6 9 C7.87880872 8.95231597 7.87880872 8.95231597 10 8 C12.16026765 5.0929357 12.16026765 5.0929357 14 2 C16 0 16 0 18.875 -0.375 C22 0 22 0 24.375 1.5 C26.82483134 5.26897129 26.5659239 7.54334931 26 12 C23.87561094 14.17234366 22.73434787 14.98769937 19.66796875 15.0390625 C18.84941406 14.90242188 18.03085938 14.76578125 17.1875 14.625 C13.95649881 14.17638241 11.21977811 13.94649517 8 14.5 C5 15 5 15 3 14 C2.773125 14.5775 2.54625 15.155 2.3125 15.75 C0.11167108 19.52284957 -2.59655872 21.62574899 -6.8125 22.75 C-7.534375 22.8325 -8.25625 22.915 -9 23 C-9.33 21.68 -9.66 20.36 -10 19 C-9.4225 18.64808594 -8.845 18.29617187 -8.25 17.93359375 C-5.96226813 16.41241093 -3.9443567 14.9443567 -2 13 C-1.38690856 9.04896625 -1.78587213 5.79414961 -3 2 C-2.01 1.34 -1.02 0.68 0 0 Z M18 5 C17.34 6.32 16.68 7.64 16 9 C18.475 9.495 18.475 9.495 21 10 C21.33 9.01 21.66 8.02 22 7 C21.67 6.34 21.34 5.68 21 5 C20.01 5 19.02 5 18 5 Z " fill="#91E7C7" transform="translate(220,108)"/>
<path d="M0 0 C0.66 0.33 1.32 0.66 2 1 C1.34 2.65 0.68 4.3 0 6 C-0.928125 5.9175 -1.85625 5.835 -2.8125 5.75 C-6.09105222 5.64696955 -6.09105222 5.64696955 -7.875 8 C-8.24625 8.66 -8.6175 9.32 -9 10 C-8.071875 10.28875 -7.14375 10.5775 -6.1875 10.875 C-3 12 -3 12 0 14 C0.5 16.8125 0.5 16.8125 0 20 C-3.36853865 24.49138487 -6.50641048 26.09941155 -12 27 C-16.79331044 27.05917667 -20.66535344 27.00912301 -24.5625 24.0625 C-27.22918952 20.23638025 -27.24158331 17.67061065 -27 13 C-26 10.5625 -26 10.5625 -25 9 C-23.68 9.33 -22.36 9.66 -21 10 C-21.03480469 10.62648438 -21.06960938 11.25296875 -21.10546875 11.8984375 C-21.13253906 12.71570313 -21.15960938 13.53296875 -21.1875 14.375 C-21.22230469 15.18710938 -21.25710938 15.99921875 -21.29296875 16.8359375 C-21.19628906 17.55007812 -21.09960938 18.26421875 -21 19 C-17.26935156 21.48709896 -15.42368032 21.29991053 -11 21 C-7.67813829 20.08885464 -7.67813829 20.08885464 -5 19 C-6.78229225 17.03009804 -8.26708834 15.85373734 -10.625 14.5625 C-13 13 -13 13 -14 11.1875 C-14 7.80952415 -12.8002013 5.82031536 -11 3 C-7.35466537 0.04432327 -4.63466801 -0.41197049 0 0 Z " fill="#91E7C7" transform="translate(323,105)"/>
<path d="M0 0 C2.91008866 4.36513299 3.38071106 8.03002982 2.375 13.125 C1.5445441 15.9824239 0.89782707 17.11719836 -1.125 19.4375 C-4.86925468 21.47242102 -7.76175367 21.71266127 -12 22 C-12.33 20.35 -12.66 18.7 -13 17 C-10.69 16.34 -8.38 15.68 -6 15 C-6.804375 14.649375 -7.60875 14.29875 -8.4375 13.9375 C-11 12 -11 12 -12 8.625 C-12 4.65208995 -11.44099676 3.07384778 -9 0 C-5.85135005 -1.57432497 -3.35512575 -0.71895552 0 0 Z M-6 4 C-6.33 5.32 -6.66 6.64 -7 8 C-4.525 8.495 -4.525 8.495 -2 9 C-2.66 7.35 -3.32 5.7 -4 4 C-4.66 4 -5.32 4 -6 4 Z " fill="#91E7C8" transform="translate(412,109)"/>
<path d="M0 0 C1.32 0 2.64 0 4 0 C5.05838127 6.00860549 5.11662571 11.84627561 5.0625 17.9375 C5.05798828 18.90751953 5.05347656 19.87753906 5.04882812 20.87695312 C5.0371315 23.2513676 5.02074086 25.62565021 5 28 C3.35 28 1.7 28 0 28 C0 18.76 0 9.52 0 0 Z " fill="#91E7C7" transform="translate(419,95)"/>
<path d="M0 0 C3.19340786 2.91572022 3.92559103 4.99547894 4.25 9.375 C3.88432532 14.67728289 1.90014579 17.34404545 -1.9375 20.8125 C-5 23 -5 23 -9 23 C-9.33 21.68 -9.66 20.36 -10 19 C-9.05125 18.38125 -8.1025 17.7625 -7.125 17.125 C-4.05554891 15.18029031 -4.05554891 15.18029031 -2 13 C-1.97792512 10.32186601 -1.97792512 10.32186601 -2.375 7.375 C-2.48585938 6.37210937 -2.59671875 5.36921875 -2.7109375 4.3359375 C-2.80632812 3.56507812 -2.90171875 2.79421875 -3 2 C-2.01 1.34 -1.02 0.68 0 0 Z " fill="#92E7C8" transform="translate(393,108)"/>
<path d="M0 0 C1.32 0.33 2.64 0.66 4 1 C4 3.64 4 6.28 4 9 C0.25 10.125 0.25 10.125 -2 9 C-1.125 2.25 -1.125 2.25 0 0 Z " fill="#90E7C8" transform="translate(555,113)"/>
<path d="M0 0 C3.3 0 6.6 0 10 0 C10.33 0.99 10.66 1.98 11 3 C10.67 3.66 10.34 4.32 10 5 C9.2575 4.814375 8.515 4.62875 7.75 4.4375 C5.05009037 4.00796892 3.55368923 4.14877026 1 5 C0.67 3.35 0.34 1.7 0 0 Z " fill="#91E8C6" transform="translate(348,97)"/>
<path d="M0 0 C0.99 0 1.98 0 3 0 C3 2.64 3 5.28 3 8 C2.01 8 1.02 8 0 8 C0 5.36 0 2.72 0 0 Z " fill="#91E6C7" transform="translate(302,103)"/>
<path d="M0 0 C1.65 0 3.3 0 5 0 C4.67 1.65 4.34 3.3 4 5 C2.68 4.67 1.36 4.34 0 4 C0 2.68 0 1.36 0 0 Z " fill="#90E9C9" transform="translate(451,127)"/>
<path d="M0 0 C1.65 0 3.3 0 5 0 C4.67 1.65 4.34 3.3 4 5 C2.68 4.67 1.36 4.34 0 4 C0 2.68 0 1.36 0 0 Z " fill="#92E7C7" transform="translate(477,126)"/>
<path d="M0 0 C1.32 0 2.64 0 4 0 C4 1.65 4 3.3 4 5 C2.35 4.67 0.7 4.34 -1 4 C-0.67 2.68 -0.34 1.36 0 0 Z " fill="#8FE8C7" transform="translate(496,96)"/>
<path d="M0 0 C2.475 0.495 2.475 0.495 5 1 C4.67 2.32 4.34 3.64 4 5 C2.68 4.67 1.36 4.34 0 4 C0 2.68 0 1.36 0 0 Z " fill="#8EE7C9" transform="translate(592,126)"/>
<path d="M0 0 C1.32 0 2.64 0 4 0 C3.67 1.65 3.34 3.3 3 5 C1.68 4.67 0.36 4.34 -1 4 C-0.67 2.68 -0.34 1.36 0 0 Z " fill="#90E7C8" transform="translate(587,126)"/>
<path d="M0 0 C2.475 0.495 2.475 0.495 5 1 C4.67 2.32 4.34 3.64 4 5 C2.68 4.67 1.36 4.34 0 4 C0 2.68 0 1.36 0 0 Z " fill="#91E7C7" transform="translate(186,100)"/>
<path d="M0 0 C2.475 0.495 2.475 0.495 5 1 C4.67 2.32 4.34 3.64 4 5 C2.68 4.67 1.36 4.34 0 4 C0 2.68 0 1.36 0 0 Z " fill="#8FE7CA" transform="translate(638,98)"/>
<path d="M0 0 C1.32 0 2.64 0 4 0 C3.67 1.65 3.34 3.3 3 5 C1.68 4.67 0.36 4.34 -1 4 C-0.67 2.68 -0.34 1.36 0 0 Z " fill="#8FE7CA" transform="translate(633,98)"/>
<path d="M0 0 C2.475 0.495 2.475 0.495 5 1 C4.67 2.32 4.34 3.64 4 5 C2.68 4.67 1.36 4.34 0 4 C0 2.68 0 1.36 0 0 Z " fill="#90E7C8" transform="translate(535,98)"/>
<path d="M0 0 C1.32 0 2.64 0 4 0 C3.67 1.65 3.34 3.3 3 5 C1.68 4.67 0.36 4.34 -1 4 C-0.67 2.68 -0.34 1.36 0 0 Z " fill="#90E9C9" transform="translate(530,98)"/>
<path d="M0 0 C2.475 0.495 2.475 0.495 5 1 C4.67 2.32 4.34 3.64 4 5 C2.68 4.67 1.36 4.34 0 4 C0 2.68 0 1.36 0 0 Z " fill="#90E7C8" transform="translate(369,98)"/>
<path d="M0 0 C1.32 0 2.64 0 4 0 C3.67 1.65 3.34 3.3 3 5 C1.68 4.67 0.36 4.34 -1 4 C-0.67 2.68 -0.34 1.36 0 0 Z " fill="#8FE9C9" transform="translate(364,98)"/>
<path d="M0 0 C2.475 0.495 2.475 0.495 5 1 C4.34 2.32 3.68 3.64 3 5 C2.01 4.67 1.02 4.34 0 4 C0 2.68 0 1.36 0 0 Z " fill="#90E7C7" transform="translate(483,126)"/>
</svg>
